
<svg width="130px" height="109px" viewBox="0 0 130 109" version="1.1" xmlns="http://www.w3.org/2000/svg" xmlns:xlink="http://www.w3.org/1999/xlink">
    <path d="M10.645267,16.2673414 L10.645267,98.4253468 L95.399334,98.4253468 L95.399334,109 L17.6072715,109 C7.88442954,109 0.00195942968,101.171395 0,91.5130485 L0,16.2673414 L10.645267,16.2673414 Z M119.354733,0 C125.233952,0 130,4.73443349 130,10.5746532 L130,80.5295087 C130,86.3697284 125.233952,91.1041618 119.354733,91.1041618 L29.2744841,91.1041618 C23.3952655,91.1041618 18.6292172,86.3697284 18.6292172,80.5295087 L18.6292172,10.5746532 C18.6292172,4.73443349 23.3952655,0 29.2744841,0 L119.351185,0 L119.354733,0 Z M119.354733,10.5746532 L29.2744841,10.5746532 L29.2744841,80.5295087 L119.351185,80.5295087 L119.351185,10.5746532 L119.354733,10.5746532 Z M107.676875,23.659024 L107.676875,34.2195776 C93.3802817,34.3535233 84.4276122,39.0909679 80.0204717,48.2838664 L79.6301453,49.1298386 L79.1688503,50.15558 C72.0861994,65.3231574 58.1621903,72.594994 38.4932853,71.7736959 L39.7103943,71.8124696 L39.717491,61.2378165 C54.791189,61.6854767 64.361284,56.6096432 69.4532701,45.827022 L69.864887,44.9246515 L70.2906977,43.9870323 C76.5820504,30.5713223 89.3279833,23.8493679 107.676875,23.659024 L107.676875,23.659024 Z M48.2585436,21.4383468 C51.8762228,21.4383468 54.8089312,24.3516015 54.8089312,27.9452834 C54.8089312,31.5389653 51.8762228,34.45222 48.2585436,34.45222 C44.6398846,34.45222 41.7063818,31.5381762 41.7063818,27.943521 C41.7063818,24.3488658 44.6398846,21.434822 48.2585436,21.434822 L48.2585436,21.4383468 Z" id="形状"></path>
</svg>