
<svg width="130px" height="172px" viewBox="0 0 130 172" version="1.1" xmlns="http://www.w3.org/2000/svg" xmlns:xlink="http://www.w3.org/1999/xlink">
    <path d="M25.0899999,0 L104.91,0 C118.77125,0 130,11.8925714 130,26.5535239 L130,145.446476 C130,160.107429 118.77125,172 104.91,172 L25.0899999,172 C11.22875,172 0,160.107429 0,145.446476 L0,26.5535239 C0,11.8925714 11.22875,0 25.0899999,0 Z M24.3749999,16.3809524 C19.8899999,16.3809524 16.2499998,20.263238 16.25,25.0464762 L16.25,146.953524 C16.25,151.736762 19.8900001,155.619048 24.3749999,155.619048 L105.625,155.619048 C110.11,155.619048 113.75,151.736762 113.75,146.953524 L113.75,25.0464762 C113.75,20.2632382 110.11,16.3809524 105.625,16.3809524 L24.3749999,16.3809524 Z M32.5,40.952381 C29.5969334,40.9528099 26.9142072,39.3918078 25.4625511,36.8574895 C24.010895,34.3231712 24.010895,31.2006384 25.4625511,28.6663201 C26.9142072,26.1320018 29.5969334,24.5709997 32.5,24.5714286 C36.9868485,24.5720916 40.6238092,28.2388985 40.6238092,32.7619048 C40.6238092,37.2849111 36.9868485,40.951718 32.5,40.952381 L32.5,40.952381 Z M65,40.952381 C62.0969334,40.9528099 59.4142072,39.3918078 57.9625511,36.8574895 C56.510895,34.3231712 56.510895,31.2006384 57.9625511,28.6663201 C59.4142072,26.1320018 62.0969334,24.5709997 65,24.5714286 C69.4868485,24.5720916 73.1238092,28.2388985 73.1238092,32.7619048 C73.1238092,37.2849111 69.4868485,40.951718 65,40.952381 L65,40.952381 Z M97.5,40.952381 C94.5969334,40.9528099 91.9142072,39.3918078 90.4625511,36.8574895 C89.010895,34.3231712 89.010895,31.2006384 90.4625511,28.6663201 C91.9142072,26.1320018 94.5969334,24.5709997 97.5,24.5714286 C101.986849,24.5720916 105.623809,28.2388985 105.623809,32.7619048 C105.623809,37.2849111 101.986849,40.951718 97.5,40.952381 L97.5,40.952381 Z M32.5,65.5238096 L81.25,65.5238096 C85.7368485,65.5244726 89.3738092,69.1912795 89.3738092,73.7142858 C89.3738092,78.2372921 85.7368485,81.904099 81.25,81.904762 L32.5,81.904762 C28.0131515,81.904099 24.3761908,78.2372921 24.3761908,73.7142858 C24.3761908,69.1912795 28.0131515,65.5244726 32.5,65.5238096 L32.5,65.5238096 Z M32.5,90.095238 L97.5,90.095238 C101.986849,90.095901 105.623809,93.7627079 105.623809,98.2857142 C105.623809,102.808721 101.986849,106.475527 97.5,106.47619 L32.5,106.47619 C28.0131515,106.475527 24.3761908,102.808721 24.3761908,98.2857142 C24.3761908,93.7627079 28.0131515,90.095901 32.5,90.095238 L32.5,90.095238 Z" id="形状"></path>
</svg>