
<svg width="130px" height="130px" viewBox="0 0 130 130" version="1.1" xmlns="http://www.w3.org/2000/svg" xmlns:xlink="http://www.w3.org/1999/xlink">
    <path d="M117.873041,69.7710965 C119.326046,68.2176466 121.66224,66.4250067 124.816409,64.4425562 C128.65955,62.0271092 130.640556,57.5114721 129.81459,53.0477831 C129.181844,49.6284806 128.27154,46.2325833 127.108794,42.9545684 C125.592001,38.6781212 121.620571,35.759462 117.086747,35.5884897 C108.177927,35.2528247 106.439802,33.5560891 106.424676,33.5385352 C106.345618,33.4220799 106.094318,32.7538895 106.033526,31.3271703 C105.940198,29.1372125 106.308372,26.1139434 107.12806,22.3417074 C108.079605,17.9629337 106.299525,13.4423015 102.61821,10.8877076 C101.090144,9.82747983 99.5194095,8.83018922 97.9503876,7.92409332 C96.381223,7.01799743 94.7325727,6.15642853 93.0503871,5.36279185 C91.5421568,4.65135886 89.9294677,4.30470476 88.3283376,4.30470476 C85.6271083,4.30456204 82.9588435,5.29186262 80.8768035,7.18397467 C74.1242298,13.3204231 71.6393387,13.3909242 71.5368778,13.3909242 C71.5293145,13.3909242 71.5257469,13.3906388 71.5257469,13.3906388 C71.5096214,13.3873564 69.1727135,12.7314394 64.4264044,5.18197227 C62.3757591,1.91979871 58.8118889,0 55.0513737,0 C54.3836653,0 53.7093926,0.0606537653 53.0365469,0.184815591 C49.6166642,0.816613752 46.2207557,1.72627752 42.943719,2.8878328 C38.665191,4.40431965 35.745055,8.3779262 35.5753809,12.9141143 C35.2421689,21.8118076 33.54714,23.5539264 33.5301583,23.5691969 C33.3801773,23.6706671 32.5153957,23.9729369 30.6408462,23.9729369 C28.5168515,23.9729369 25.7214381,23.599167 22.3328075,22.8621881 C21.5483679,22.6915012 20.7592191,22.6087267 19.9774908,22.608584 C16.3969243,22.6084412 12.9751865,24.3492757 10.8781627,27.371403 C9.81816318,28.8993071 8.82095308,30.4697401 7.91507304,32.0388887 C7.00905029,33.6080373 6.14769366,35.2568207 5.35454916,36.9389993 C3.44346764,40.9923834 4.16283457,45.7980169 7.17701198,49.1141367 C9.77064301,51.9677179 11.6009545,54.3995771 12.6164306,56.341782 C13.2800006,57.6112297 13.3983016,58.3186666 13.3874561,58.466091 C13.3597717,58.598673 13.0663739,59.2243344 12.1269586,60.2287608 C10.6739544,61.7822107 8.33775998,63.5748506 5.1835907,65.5573011 C1.34045028,67.9727481 -0.640555819,72.4883852 0.185410419,76.9519315 C0.818156496,80.371234 1.72846034,83.7671313 2.89120617,87.0452889 C4.4079987,91.3217361 8.37942932,94.2403953 12.9132533,94.4113676 C21.8219299,94.7470326 23.5601979,96.4437682 23.5753244,96.4613221 C23.654382,96.5777773 23.9056824,97.2459678 23.9664739,98.6729725 C24.0598018,100.86293 23.6916275,103.885771 22.8719402,107.658435 C21.9203952,112.037209 23.7004751,116.557841 27.3817901,119.112435 C28.9101416,120.172663 30.4807332,121.170096 32.0497551,122.076049 C33.618777,122.982145 35.26757,123.843571 36.9497556,124.637351 C38.4575578,125.348784 40.0705323,125.695438 41.6716624,125.695438 C44.372749,125.695438 47.0411565,124.70828 49.1231965,122.816025 C55.8757702,116.679577 58.3606613,116.609076 58.4629795,116.609076 C58.4705428,116.609076 58.4741104,116.609361 58.4741104,116.609361 C58.4902359,116.612644 60.8271438,117.268418 65.5734529,124.818028 C67.6240982,128.080059 71.1879684,130 74.9484836,130 C75.616192,130 76.2901793,129.939632 76.9631677,129.815184 C80.3829077,129.183386 83.7786735,128.273865 87.0561383,127.112167 C91.3346663,125.59568 94.2548023,121.622074 94.4244764,117.085886 C94.7576884,108.18805 96.4527173,106.446074 96.469699,106.430803 C96.61968,106.329333 97.4844616,106.027063 99.3590111,106.027063 C101.483006,106.027063 104.278419,106.400833 107.66705,107.137812 C108.451489,107.308499 109.240781,107.391416 110.022366,107.391416 C113.602933,107.391416 117.024528,105.650867 119.121552,102.62874 C120.181551,101.100836 121.178762,99.5304026 122.084784,97.9611113 C122.990807,96.3921055 123.852164,94.743322 124.645308,93.0611434 C126.55639,89.0077593 125.837023,84.2021258 122.822845,80.8860061 C120.229214,78.0324248 118.398903,75.6005656 117.383427,73.6583607 C116.719857,72.388913 116.601556,71.6814761 116.612401,71.5340517 C116.640514,71.4011843 116.933769,70.7756656 117.873041,69.7710965 L117.873041,69.7710965 Z M114.626829,88.3372854 C113.976958,89.7157671 113.268151,91.0792638 112.492559,92.4224949 C111.716967,93.7657261 110.89043,95.0617186 110.021938,96.3137551 C105.918793,95.4215025 102.387316,94.949973 99.36001,94.949973 C88.2160301,94.949973 83.9306524,101.344592 83.3565574,116.671585 C80.6187961,117.642045 77.8078281,118.395008 74.9514804,118.922624 C69.2954383,109.925602 64.2440297,105.532271 58.4638358,105.532271 C53.6343307,105.532271 48.2955178,108.602208 41.6748019,114.618348 C40.2961461,113.968282 38.9321887,113.259133 37.5884952,112.483193 C36.244659,111.70711 34.948771,110.880506 33.6964076,110.011801 C37.8697633,90.8068213 32.8226358,84.0778213 13.3312311,83.3431258 C12.3599929,80.6052862 11.6065199,77.7942339 11.0780899,74.9377983 C27.5908503,64.5602959 28.5956237,56.2104845 15.3743131,41.6642844 C16.0241835,40.2858027 16.7329904,38.9223061 17.5085824,37.5790749 C18.2841744,36.2355584 19.1107115,34.9398512 19.9792033,33.6878148 C24.0823489,34.5800674 27.6139682,35.0515969 30.6411316,35.0515969 C41.7851115,35.0515969 46.0704892,28.6569774 46.6445843,13.329985 C49.3823455,12.3595248 52.1933136,11.6065618 55.0496612,11.0789454 C60.7057033,20.0759682 65.7571119,24.4692988 71.5373059,24.4692988 C76.3668109,24.4692988 81.7056238,21.399362 88.3263397,15.3829366 C89.7049955,16.0330022 91.0688102,16.7421518 92.4126464,17.5182346 C93.7564826,18.2943173 95.0522279,19.1209211 96.304734,19.9896257 C92.1313784,39.1946058 97.1785059,45.9236059 116.669911,46.6583014 C117.641149,49.3962837 118.394622,52.2071933 118.923052,55.0636288 C102.410291,65.4409886 101.405518,73.7907999 114.626829,88.3371427 L114.626829,88.3372854 Z" id="形状"></path>
    <path d="M81.7350533,36.3596747 C76.7956412,33.5073932 71.1844145,32 65.5084756,32 C59.9033512,32 54.361094,33.4571515 49.4802918,36.2136332 C44.4457982,39.0571153 40.2497246,43.2188036 37.3456238,48.2493613 C28.3880965,63.7659601 33.7257156,83.6795601 49.244433,92.6404672 C54.1838451,95.4927487 59.7950718,97 65.4710107,97 C71.0761351,97 76.6186761,95.5427065 81.4993364,92.7862249 C86.53383,89.9427428 90.7299036,85.7810544 93.6340044,80.7506387 C97.9734098,73.2339679 99.1253149,64.4764403 96.8777021,56.0920356 C94.6302313,47.7079147 89.2524509,40.7003315 81.7351952,36.3599586 L81.7350533,36.3596747 Z M84.0944933,75.2423589 C80.2695213,81.8677361 73.1335849,85.9834405 65.4710107,85.9834405 C61.7260774,85.9834405 58.0194606,84.9861284 54.7520634,83.0996515 C44.493197,77.1763809 40.9642548,64.0131947 46.8851349,53.7570734 C50.710107,47.1316962 57.8459014,43.0159918 65.5084756,43.0159918 C69.2534089,43.0159918 72.9600257,44.013162 76.2274229,45.8997808 C81.1972043,48.7693772 84.7525423,53.4019752 86.2382259,58.9441751 C87.7236258,64.4862332 86.9625482,70.2741066 84.0946352,75.242217 L84.0944933,75.2423589 Z" id="形状"></path>
</svg>